<svg xmlns="http://www.w3.org/2000/svg" xmlns:xlink="http://www.w3.org/1999/xlink" width="197.209" height="202.99" viewBox="0 0 197.209 202.99"><defs><style>.a{fill:#db0100;}.b,.p{fill:#b90000;}.b,.c{stroke:#707070;}.c,.i,.l{fill:#fff;}.d{fill:#d30403;}.e{clip-path:url(#e);}.f,.s{fill:#e60000;}.f{opacity:0.807;}.g{fill:#7e0000;opacity:0.343;}.h{fill:#ffd112;}.j,.k,.l,.n{fill-rule:evenodd;}.j{opacity:0.2;}.k{fill:#c8c8d2;}.m{fill:#ebebeb;}.n{fill:#dcdce6;}.o{clip-path:url(#f);}.q{clip-path:url(#g);}.r{fill:#ffe955;}.t{filter:url(#c);}.u{filter:url(#a);}</style><filter id="a" x="0.209" y="0" width="197" height="203" filterUnits="userSpaceOnUse"><feOffset dy="3" input="SourceAlpha"/><feGaussianBlur stdDeviation="3" result="b"/><feFlood flood-opacity="0.161"/><feComposite operator="in" in2="b"/><feComposite in="SourceGraphic"/></filter><filter id="c" x="0" y="0" width="197.209" height="202.99" filterUnits="userSpaceOnUse"><feOffset dy="3" input="SourceAlpha"/><feGaussianBlur stdDeviation="3" result="d"/><feFlood flood-opacity="0.161"/><feComposite operator="in" in2="d"/><feComposite in="SourceGraphic"/></filter><clipPath id="e"><g class="u" transform="matrix(1, 0, 0, 1, 0, 0)"><rect class="a" width="179" height="185" rx="6" transform="translate(0.21)"/></g></clipPath><clipPath id="f"><rect class="b" width="38.388" height="34.903" transform="translate(0)"/></clipPath><clipPath id="g"><rect class="c" width="39.401" height="35.46"/></clipPath></defs><g transform="translate(9 6)"><g class="t" transform="matrix(1, 0, 0, 1, -9, -6)"><path class="d" d="M6.937,0H172.272a6.937,6.937,0,0,1,6.937,6.937V178.053a6.937,6.937,0,0,1-6.937,6.937H6.937A6.937,6.937,0,0,1,0,178.053V6.937A6.937,6.937,0,0,1,6.937,0Z" transform="translate(9 6)"/></g><g class="e" transform="translate(0 0)"><g transform="translate(-270.763 -488.438)"><path class="f" d="M206.776.65C87.452,10.233,14.622,128.493,2.2,223.4-8.874,308.011,22.146,419.1,87.949,444.3c48.056,18.456,83.264-21.082,164.328.923,52.741,14.268,58.278,36.486,85.962,33.362,66.086-7.453,136.076-145.517,110.806-266.687C427.962,110.463,333.908-9.571,206.776.65Z" transform="translate(136.057 156.976)"/><path class="g" d="M261.748.813C110.7,12.943,18.51,162.642,2.785,282.778-11.232,389.886,28.035,530.509,111.33,562.408c60.832,23.362,105.4-26.687,208.014,1.168,66.762,18.061,73.771,46.185,108.815,42.232,83.655-9.435,172.252-184.2,140.264-337.586C541.736,139.819,422.678-12.126,261.748.813Z" transform="translate(0.002 -0.039)"/></g></g><g transform="translate(38.586 8.586)"><g transform="matrix(-0.875, -0.485, 0.485, -0.875, 76.846, 86.256)"><path class="h" d="M0,4.125l.456,0A3.641,3.641,0,0,0,4.107.458l0-.458L6.718.009l0,.458A3.7,3.7,0,0,0,10.4,4.161l.456,0,.009,2.623-.456,0A3.64,3.64,0,0,0,6.754,10.45l0,.458L4.143,10.9l0-.458A3.7,3.7,0,0,0,.466,6.749l-.456,0Zm0,0" transform="translate(0 39.01)"/><path class="h" d="M13.837,5.306l-.582,0A4.72,4.72,0,0,1,8.568.6l0-.585L5.236,0l0,.585A4.642,4.642,0,0,1,.584,5.26L0,5.258.012,8.6.6,8.6a4.722,4.722,0,0,1,4.687,4.708l0,.586,3.329.012,0-.586a4.643,4.643,0,0,1,4.655-4.675l.582,0Zm0,0" transform="translate(74.014 34.382)"/><path class="h" d="M0,2.489H.276A2.2,2.2,0,0,0,2.479.277V0L4.054.005V.282A2.235,2.235,0,0,0,6.274,2.511h.276l.005,1.583H6.28a2.2,2.2,0,0,0-2.2,2.213v.277L2.5,6.579V6.3A2.235,2.235,0,0,0,.281,4.073H.005Zm0,0" transform="translate(76.147 0)"/></g><g transform="translate(13.779 9.572)"><g transform="translate(0 0)"><path class="i" d="M239.566,107.277h.3a2.42,2.42,0,0,1,2.41,2.431v.3H244v-.3a2.42,2.42,0,0,1,2.41-2.431h.3v-1.732h-.3a2.42,2.42,0,0,1-2.41-2.43v-.3h-1.719v.3a2.42,2.42,0,0,1-2.41,2.43h-.3Zm0,0" transform="translate(-182.023 -38.247)"/><g transform="translate(0 0)"><path class="i" d="M239.566,106.04h.217a1.75,1.75,0,0,1,1.742,1.757v.219h1.242V107.8a1.75,1.75,0,0,1,1.742-1.757h.217v-1.252h-.217a1.749,1.749,0,0,1-1.742-1.757v-.219h-1.242v.219a1.749,1.749,0,0,1-1.742,1.757h-.217Zm0,0" transform="translate(-239.566 -30.985)"/><g transform="translate(5.293)"><g transform="translate(1.308)"><path class="j" d="M331.853,543.427l26.569,7.186a6.892,6.892,0,0,1,4.789,8.392l-17.5,65.76a6.824,6.824,0,0,1-8.324,4.828l-26.569-7.185a6.892,6.892,0,0,1-4.789-8.392l17.5-65.76A6.824,6.824,0,0,1,331.853,543.427Z" transform="translate(-305.794 -540.378)"/><path class="k" d="M339.253,540.228l26.569,7.185a6.892,6.892,0,0,1,4.789,8.392l-17.5,65.76a6.824,6.824,0,0,1-8.324,4.829l-26.569-7.185a6.892,6.892,0,0,1-4.789-8.393l17.5-65.76A6.824,6.824,0,0,1,339.253,540.228Z" transform="translate(-308.975 -539.017)"/><path class="l" d="M339.653,538.527l26.569,7.185a6.892,6.892,0,0,1,4.789,8.392l-17.5,65.76a6.824,6.824,0,0,1-8.324,4.829l-26.569-7.185a6.892,6.892,0,0,1-4.789-8.392l17.5-65.76A6.824,6.824,0,0,1,339.653,538.527Z" transform="translate(-309.147 -538.294)"/><path class="m" d="M.076.13,63.9,0l-.076,37.307L0,37.437Z" transform="translate(7.359 67.831) rotate(-75.001)"/><path class="n" d="M342.5,668.749l5.359,1.437a2.021,2.021,0,0,1-1.026,3.909l-5.36-1.437a2.021,2.021,0,0,1,1.026-3.909Z" transform="translate(-320.489 -593.731)"/><path class="n" d="M373.764,548.967,381,550.921a.958.958,0,0,1,.684,1.207.948.948,0,0,1-1.2.69l-7.241-1.955a.982.982,0,0,1,.513-1.9Z" transform="translate(-334.477 -542.813)"/></g><g transform="translate(0 27.472)"><path class="j" d="M328.98,640.359l5.4,5.078a1.167,1.167,0,0,0,1.856-.334l2.784-4.744h11.847a2.232,2.232,0,0,0,2.457-2.673l-4.914-20.313a3.892,3.892,0,0,0-3.767-2.673h-33.74a2.232,2.232,0,0,0-2.457,2.673l4.914,20.313a3.892,3.892,0,0,0,3.767,2.673Z" transform="translate(-308.394 -596.453)"/><g transform="translate(6.247 0)"><path class="i" d="M3.969,3.236a3,3,0,0,1,4.814,0l.406.545A3,3,0,0,1,6.782,8.572H5.971A3,3,0,0,1,3.564,3.781Z" transform="translate(26.559 45.611) rotate(180)"/><g transform="translate(0.744 0.888)"><g transform="translate(0 0)"><path class="l" d="M380.842,614.886c2.382,0,4.379-1.659,4.379-3.637V578.26c0-1.978-1.721-2.4-4.1-2.4h-31.6c-2.382,0-3.019.354-3.019,2.4v32.989c0,1.978,1.921,3.637,4.379,3.637C350.879,614.886,367.757,614.938,380.842,614.886Z" transform="translate(-346.5 -575.864)"/></g></g><g transform="translate(0)"><g class="o" transform="translate(0.507 1.12)"><path class="p" d="M11.5,8.659H0V1.119A1.128,1.128,0,0,1,1.871.28L9.288,6.736Zm0,0" transform="translate(7.889 4.582)"/><path class="p" d="M11.5,1.119v7.54H0L2.209,6.736,9.627.28A1.128,1.128,0,0,1,11.5,1.119Zm0,0" transform="translate(19.373 4.582)"/><path class="p" d="M22.492,2.327V18.454a19.274,19.274,0,0,1-8.478,3.491,18.811,18.811,0,0,1-8.2-.6A19.57,19.57,0,0,1,0,18.454V2.327A2.228,2.228,0,0,1,2.114,0H20.377A2.228,2.228,0,0,1,22.492,2.327Zm0,0" transform="translate(7.492 16.148)"/><path class="p" d="M18.578,2.327V18.454a21.765,21.765,0,0,1-9.16,3.491,21.97,21.97,0,0,1-5.98,0,21.65,21.65,0,0,1-2.878-.6A2.342,2.342,0,0,1,0,19.823V0H16.294A2.306,2.306,0,0,1,18.578,2.327Zm0,0" transform="translate(12.947 16.148)"/><path class="p" d="M12.15,2.327V18.454a21.765,21.765,0,0,1-9.16,3.491,21.859,21.859,0,0,1-2.99.2V0H9.865A2.306,2.306,0,0,1,12.15,2.327Zm0,0" transform="translate(19.373 16.148)"/><path class="p" d="M5.722,0V7.329H0v-5A2.306,2.306,0,0,1,2.284,0Zm0,0" transform="translate(7.239 16.164)"/><path class="p" d="M0,0H6.429V7.329H0ZM0,0" transform="translate(12.955 16.164)"/><path class="p" d="M12.15,2.327v5H0V0H9.866A2.306,2.306,0,0,1,12.15,2.327Zm0,0" transform="translate(19.373 16.164)"/><path class="p" d="M30.394,1.973v3.8a1.954,1.954,0,0,1-1.935,1.973H1.935A1.954,1.954,0,0,1,0,5.776v-3.8A1.954,1.954,0,0,1,1.935,0H12.217l2.995.7L18.206,0H28.459A1.954,1.954,0,0,1,30.394,1.973Zm0,0" transform="translate(4.183 12.293)"/><path class="p" d="M19.707,0H9.418L6.428.44,3.444,0H0V7.749H19.707a1.955,1.955,0,0,0,1.937-1.973v-3.8A1.955,1.955,0,0,0,19.707,0Zm0,0" transform="translate(12.944 12.293)"/><path class="p" d="M15.216,1.973v3.8a1.955,1.955,0,0,1-1.937,1.973H0V.352L2.989,0H13.279A1.955,1.955,0,0,1,15.216,1.973Zm0,0" transform="translate(19.37 12.293)"/><path class="p" d="M5.98,0V18.07a21.87,21.87,0,0,1-2.99.2A21.87,21.87,0,0,1,0,18.07V0Zm0,0" transform="translate(16.39 20.023)"/><path class="p" d="M0,0H5.98V7.749H0ZM0,0" transform="translate(16.39 12.293)"/></g><g class="q" transform="translate(0)"><path class="r" d="M11.8,8.8H0V1.137A1.159,1.159,0,0,1,1.92.285L9.533,6.844Zm0,0" transform="translate(8.097 4.655)"/><path class="r" d="M11.8,1.137V8.8H0L2.268,6.844,9.881.285A1.159,1.159,0,0,1,11.8,1.137Zm0,0" transform="translate(19.885 4.655)"/><path class="s" d="M23.085,2.364V18.748a19.894,19.894,0,0,1-8.7,3.547,19.53,19.53,0,0,1-5.681,0,19.407,19.407,0,0,1-2.734-.606A20.169,20.169,0,0,1,0,18.748V2.364A2.273,2.273,0,0,1,2.17,0H20.915A2.273,2.273,0,0,1,23.085,2.364Zm0,0" transform="translate(7.689 16.406)"/><path class="s" d="M19.068,2.364V18.748a22.477,22.477,0,0,1-9.4,3.547A22.66,22.66,0,0,1,6.6,22.5a22.66,22.66,0,0,1-3.069-.208,22.421,22.421,0,0,1-2.954-.606A2.365,2.365,0,0,1,0,20.139V0H16.724A2.355,2.355,0,0,1,19.068,2.364Zm0,0" transform="translate(13.289 16.406)"/><path class="s" d="M12.47,2.364V18.748a22.477,22.477,0,0,1-9.4,3.547A22.659,22.659,0,0,1,0,22.5V0H10.126A2.355,2.355,0,0,1,12.47,2.364Zm0,0" transform="translate(19.884 16.406)"/><path class="p" d="M5.873,0V7.446H0V2.364A2.354,2.354,0,0,1,2.345,0Zm0,0" transform="translate(7.43 16.422)"/><path class="p" d="M0,0H6.6V7.446H0ZM0,0" transform="translate(13.297 16.422)"/><path class="p" d="M12.471,2.364V7.446H0V0H10.126A2.354,2.354,0,0,1,12.471,2.364Zm0,0" transform="translate(19.884 16.422)"/><path class="s" d="M31.2,2V5.868a2,2,0,0,1-1.986,2H1.986A2,2,0,0,1,0,5.868V2A2,2,0,0,1,1.986,0H12.539l3.074.716L18.687,0H29.21A2,2,0,0,1,31.2,2Zm0,0" transform="translate(4.293 12.489)"/><path class="s" d="M20.227,0H9.666L6.6.448,3.535,0H0V7.873H20.227a2,2,0,0,0,1.988-2V2A2,2,0,0,0,20.227,0Zm0,0" transform="translate(13.286 12.489)"/><path class="s" d="M15.617,2V5.868a2,2,0,0,1-1.988,2H0V.358L3.068,0H13.629A2,2,0,0,1,15.617,2Zm0,0" transform="translate(19.882 12.489)"/><path class="h" d="M6.138,0V18.358a22.674,22.674,0,0,1-3.069.208A22.674,22.674,0,0,1,0,18.358V0Zm0,0" transform="translate(16.822 20.343)"/><path class="h" d="M0,0H6.138V7.873H0ZM0,0" transform="translate(16.822 12.489)"/></g></g></g></g></g></g></g></g></g></g></svg>