<svg xmlns="http://www.w3.org/2000/svg" width="44" height="44" viewBox="0 0 44 44"><defs><style>.a,.b{fill:none;}.a{stroke:#e60000;stroke-linecap:round;stroke-linejoin:round;stroke-width:2px;}</style></defs><line class="a" x2="5.489" transform="translate(19.21 35.675)"/><rect class="b" width="44" height="44"/><path class="a" d="M72.125,124.2v8.187a2.752,2.752,0,0,1-2.744,2.744H54.744A2.752,2.752,0,0,1,52,132.387V124.2" transform="translate(-40.108 -95.797)"/><path class="a" d="M52,32.967V22.744A2.752,2.752,0,0,1,54.744,20H69.38a2.752,2.752,0,0,1,2.744,2.744v1.6" transform="translate(-40.108 -15.426)"/><path class="a" d="M20,82.083s6.312.549,11.686-6.883c0,0,1.83,3.133,3.933,3.7" transform="translate(-15.426 -58.003)"/><path class="a" d="M44.813,45.8,58.42,52.409s-4.734,9.262-18.5,9.262c0,0-14.819.16-19.919-2.264C20,59.407,37.929,61.648,44.813,45.8Z" transform="translate(-15.426 -35.326)"/></svg>